<?xml version="1.0" encoding="UTF-8" standalone="no"?>
<!DOCTYPE svg PUBLIC "-//W3C//DTD SVG 1.1//EN" "http://www.w3.org/Graphics/SVG/1.1/DTD/svg11.dtd">
<svg version="1.1" xmlns="http://www.w3.org/2000/svg" xmlns:xlink="http://www.w3.org/1999/xlink" preserveAspectRatio="xMidYMid meet" viewBox="0 0 640 640" width="640" height="640"><defs><path d="M321.59 640C144.98 640.95 0.82 498.33 -0.13 321.72C-1.09 145.11 141.53 0.95 318.14 0C494.75 -0.95 638.91 141.67 639.87 318.28C640.82 494.89 498.2 639.05 321.59 640Z" id="aT5V7ebk0"></path><clipPath id="clipanyYwyHYh"><use xlink:href="#aT5V7ebk0" opacity="1"></use></clipPath><path d="M330.82 170.03L331.22 170.07L331.62 170.13L332.02 170.2L332.4 170.29L332.79 170.39L333.16 170.51L333.53 170.64L333.89 170.79L334.25 170.94L334.6 171.12L334.94 171.3L335.27 171.5L335.59 171.71L335.91 171.93L336.21 172.16L336.51 172.41L336.79 172.66L337.07 172.93L337.34 173.21L337.59 173.49L337.84 173.79L338.07 174.09L338.29 174.41L338.5 174.73L338.7 175.06L338.88 175.4L339.06 175.75L339.21 176.11L339.36 176.47L339.49 176.84L339.61 177.21L339.71 177.6L339.8 177.98L339.87 178.38L339.93 178.78L339.97 179.18L339.99 179.59L340 180L340 300L460 300L460.41 300.01L460.82 300.03L461.22 300.07L461.62 300.13L462.02 300.2L462.4 300.29L462.79 300.39L463.16 300.51L463.53 300.64L463.89 300.79L464.25 300.94L464.6 301.12L464.94 301.3L465.27 301.5L465.59 301.71L465.91 301.93L466.21 302.16L466.51 302.41L466.79 302.66L467.07 302.93L467.34 303.21L467.59 303.49L467.84 303.79L468.07 304.09L468.29 304.41L468.5 304.73L468.7 305.06L468.88 305.4L469.06 305.75L469.21 306.11L469.36 306.47L469.49 306.84L469.61 307.21L469.71 307.6L469.8 307.98L469.87 308.38L469.93 308.78L469.97 309.18L469.99 309.59L470 310L470 330L469.99 330.41L469.97 330.82L469.93 331.22L469.87 331.62L469.8 332.02L469.71 332.4L469.61 332.79L469.49 333.16L469.36 333.53L469.21 333.89L469.06 334.25L468.88 334.6L468.7 334.94L468.5 335.27L468.29 335.59L468.07 335.91L467.84 336.21L467.59 336.51L467.34 336.79L467.07 337.07L466.79 337.34L466.51 337.59L466.21 337.84L465.91 338.07L465.59 338.29L465.27 338.5L464.94 338.7L464.6 338.88L464.25 339.06L463.89 339.21L463.53 339.36L463.16 339.49L462.79 339.61L462.4 339.71L462.02 339.8L461.62 339.87L461.22 339.93L460.82 339.97L460.41 339.99L460 340L340 340L340 460L339.99 460.41L339.97 460.82L339.93 461.22L339.87 461.62L339.8 462.02L339.71 462.4L339.61 462.79L339.49 463.16L339.36 463.53L339.21 463.89L339.06 464.25L338.88 464.6L338.7 464.94L338.5 465.27L338.29 465.59L338.07 465.91L337.84 466.21L337.59 466.51L337.34 466.79L337.07 467.07L336.79 467.34L336.51 467.59L336.21 467.84L335.91 468.07L335.59 468.29L335.27 468.5L334.94 468.7L334.6 468.88L334.25 469.06L333.89 469.21L333.53 469.36L333.16 469.49L332.79 469.61L332.4 469.71L332.02 469.8L331.62 469.87L331.22 469.93L330.82 469.97L330.41 469.99L330 470L310 470L309.59 469.99L309.18 469.97L308.78 469.93L308.38 469.87L307.98 469.8L307.6 469.71L307.21 469.61L306.84 469.49L306.47 469.36L306.11 469.21L305.75 469.06L305.4 468.88L305.06 468.7L304.73 468.5L304.41 468.29L304.09 468.07L303.79 467.84L303.49 467.59L303.21 467.34L302.93 467.07L302.66 466.79L302.41 466.51L302.16 466.21L301.93 465.91L301.71 465.59L301.5 465.27L301.3 464.94L301.12 464.6L300.94 464.25L300.79 463.89L300.64 463.53L300.51 463.16L300.39 462.79L300.29 462.4L300.2 462.02L300.13 461.62L300.07 461.22L300.03 460.82L300.01 460.41L300 460L300 340L180 340L179.59 339.99L179.18 339.97L178.78 339.93L178.38 339.87L177.98 339.8L177.6 339.71L177.21 339.61L176.84 339.49L176.47 339.36L176.11 339.21L175.75 339.06L175.4 338.88L175.06 338.7L174.73 338.5L174.41 338.29L174.09 338.07L173.79 337.84L173.49 337.59L173.21 337.34L172.93 337.07L172.66 336.79L172.41 336.51L172.16 336.21L171.93 335.91L171.71 335.59L171.5 335.27L171.3 334.94L171.12 334.6L170.94 334.25L170.79 333.89L170.64 333.53L170.51 333.16L170.39 332.79L170.29 332.4L170.2 332.02L170.13 331.62L170.07 331.22L170.03 330.82L170.01 330.41L170 330L170 310L170.01 309.59L170.03 309.18L170.07 308.78L170.13 308.38L170.2 307.98L170.29 307.6L170.39 307.21L170.51 306.84L170.64 306.47L170.79 306.11L170.94 305.75L171.12 305.4L171.3 305.06L171.5 304.73L171.71 304.41L171.93 304.09L172.16 303.79L172.41 303.49L172.66 303.21L172.93 302.93L173.21 302.66L173.49 302.41L173.79 302.16L174.09 301.93L174.41 301.71L174.73 301.5L175.06 301.3L175.4 301.12L175.75 300.94L176.11 300.79L176.47 300.64L176.84 300.51L177.21 300.39L177.6 300.29L177.98 300.2L178.38 300.13L178.78 300.07L179.18 300.03L179.59 300.01L180 300L300 300L300 180L300.01 179.59L300.03 179.18L300.07 178.78L300.13 178.38L300.2 177.98L300.29 177.6L300.39 177.21L300.51 176.84L300.64 176.47L300.79 176.11L300.94 175.75L301.12 175.4L301.3 175.06L301.5 174.73L301.71 174.41L301.93 174.09L302.16 173.79L302.41 173.49L302.66 173.21L302.93 172.93L303.21 172.66L303.49 172.41L303.79 172.16L304.09 171.93L304.41 171.71L304.73 171.5L305.06 171.3L305.4 171.12L305.75 170.94L306.11 170.79L306.47 170.64L306.84 170.51L307.21 170.39L307.6 170.29L307.98 170.2L308.38 170.13L308.78 170.07L309.18 170.03L309.59 170.01L310 170L330 170L330.41 170.01L330.82 170.03Z" id="azotY2UpK"></path></defs><g><g><g><g></g><use xlink:href="#aT5V7ebk0" opacity="1" fill="#2C3E50" fill-opacity="1"></use><g clip-path="url(#clipanyYwyHYh)"><use xlink:href="#aT5V7ebk0" opacity="1" fill-opacity="0" stroke="#595959" stroke-width="50" stroke-opacity="1"></use></g><g></g></g><g><use xlink:href="#azotY2UpK" opacity="1" fill="#ffffff" fill-opacity="1"></use><g><use xlink:href="#azotY2UpK" opacity="1" fill-opacity="0" stroke="#595959" stroke-width="5" stroke-opacity="0"></use></g></g></g></g></svg>