<?xml version="1.0" encoding="UTF-8" standalone="no"?>
<!DOCTYPE svg PUBLIC "-//W3C//DTD SVG 1.1//EN" "http://www.w3.org/Graphics/SVG/1.1/DTD/svg11.dtd">
<svg version="1.1" xmlns="http://www.w3.org/2000/svg" xmlns:xlink="http://www.w3.org/1999/xlink" preserveAspectRatio="xMidYMid meet" viewBox="0 0 640 640" width="640" height="640"><defs><path d="M321.59 640C144.98 640.95 0.82 498.33 -0.13 321.72C-1.09 145.11 141.53 0.95 318.14 0C494.75 -0.95 638.91 141.67 639.87 318.28C640.82 494.89 498.2 639.05 321.59 640Z" id="aT5V7ebk0"></path><clipPath id="clipanyYwyHYh"><use xlink:href="#aT5V7ebk0" opacity="1"></use></clipPath><path d="M331.94 100C336.39 100 340 103.61 340 108.06C340 140.45 340 229.55 340 261.94C340 266.39 336.39 270 331.94 270C325.55 270 314.45 270 308.06 270C303.61 270 300 266.39 300 261.94C300 229.55 300 140.45 300 108.06C300 103.61 303.61 100 308.06 100C314.45 100 325.55 100 331.94 100Z" id="a29EAFCdoQ"></path><path d="M331.94 370C336.39 370 340 373.61 340 378.06C340 410.45 340 499.55 340 531.94C340 536.39 336.39 540 331.94 540C325.55 540 314.45 540 308.06 540C303.61 540 300 536.39 300 531.94C300 499.55 300 410.45 300 378.06C300 373.61 303.61 370 308.06 370C314.45 370 325.55 370 331.94 370Z" id="a4oHI0ygvP"></path><path d="M540 331.94C540 336.39 536.39 340 531.94 340C499.55 340 410.45 340 378.06 340C373.61 340 370 336.39 370 331.94C370 325.55 370 314.45 370 308.06C370 303.61 373.61 300 378.06 300C410.45 300 499.55 300 531.94 300C536.39 300 540 303.61 540 308.06C540 314.45 540 325.55 540 331.94Z" id="a495InVTjx"></path><path d="M270 331.94C270 336.39 266.39 340 261.94 340C229.55 340 140.45 340 108.06 340C103.61 340 100 336.39 100 331.94C100 325.55 100 314.45 100 308.06C100 303.61 103.61 300 108.06 300C140.45 300 229.55 300 261.94 300C266.39 300 270 303.61 270 308.06C270 314.45 270 325.55 270 331.94Z" id="a1i8XqRfng"></path><path d="M431.85 310C434.5 310 436.65 312.15 436.65 314.8C436.65 317.84 436.65 322.16 436.65 325.2C436.65 327.85 434.5 330 431.85 330C388.12 330 261.73 330 218 330C215.35 330 213.2 327.85 213.2 325.2C213.2 322.16 213.2 317.84 213.2 314.8C213.2 312.15 215.35 310 218 310C261.73 310 388.12 310 431.85 310Z" id="a1LuJ6mvYT"></path><path d="M330 418.65C330 421.3 327.85 423.45 325.2 423.45C322.16 423.45 317.84 423.45 314.8 423.45C312.15 423.45 310 421.3 310 418.65C310 374.92 310 248.53 310 204.8C310 202.15 312.15 200 314.8 200C317.84 200 322.16 200 325.2 200C327.85 200 330 202.15 330 204.8C330 248.53 330 374.92 330 418.65Z" id="dhMclPonT"></path></defs><g><g><g><g></g><use xlink:href="#aT5V7ebk0" opacity="1" fill="#41b883" fill-opacity="1"></use><g clip-path="url(#clipanyYwyHYh)"><use xlink:href="#aT5V7ebk0" opacity="1" fill-opacity="0" stroke="#595959" stroke-width="50" stroke-opacity="1"></use></g><g></g></g><g><use xlink:href="#a29EAFCdoQ" opacity="1" fill="#ffffff" fill-opacity="1"></use></g><g><use xlink:href="#a4oHI0ygvP" opacity="1" fill="#ffffff" fill-opacity="1"></use></g><g><use xlink:href="#a495InVTjx" opacity="1" fill="#ffffff" fill-opacity="1"></use></g><g><use xlink:href="#a1i8XqRfng" opacity="1" fill="#ffffff" fill-opacity="1"></use></g><g><use xlink:href="#a1LuJ6mvYT" opacity="1" fill="#ffffff" fill-opacity="1"></use></g><g><use xlink:href="#dhMclPonT" opacity="1" fill="#ffffff" fill-opacity="1"></use></g></g></g></svg>